# xmcd
#
# Track frame offsets:
#	183
#	27160
#	44050
#
# Disc length: 874 seconds
#
# Revision: 0
# Processed by: cddbd v1.5.2PL0 Copyright (c) Steve Scherf et al.
# Submitted via: audiograbber 1.83.01
#
DISCID=21036803
DTITLE=Marillion - Easter CDS
DYEAR=1990
DGENRE=Rock
TTITLE0=Easter
TTITLE1=The Release
TTITLE2=Uninvited Guest (live)
EXTD=
EXTT0=
EXTT1=
EXTT2=
PLAYORDER=
